ply
format ascii 1.0
element vertex 236
property float x
property float y
property float z
property uchar red
property uchar green
property uchar blue
element face 172
property list uchar int vertex_index
end_header
2.125339547868105 0.0028140425947189573 0.06335367875151514 255 0 0
8.415523628896588 2.2628816403637284 0.06335367875151514 255 0 0
6.126045207196154 8.716840753311624 0.06335367875151514 255 0 0
-0.16418206833443738 6.456894919324211 0.06335367875151514 255 0 0
4.355138900531624 0.8169913321274973 0.7807951023880865 255 0 0
5.676120123205338 1.2918090749236175 0.7807951023880865 255 0 0
5.00711219811373 3.1777188759744965 0.7807951023880865 255 0 0
3.6860626724083274 2.7030936770213887 0.7807951023880865 255 0 0
2.649443013184022 0.21547174325282398 0.750842248746591 255 0 0
3.677265482008982 0.5847743626546398 0.750842248746591 255 0 0
3.468138299773282 1.1742965310063136 0.750842248746591 255 0 0
2.4403071122571105 0.8050184892882466 0.750842248746591 255 0 0
1.774545127908219 1.0297497167118568 0.47147449519270557 255 0 0
2.1789855565655647 1.1750423597159914 0.47147449519270557 255 0 0
1.8617322354959462 2.0693683089029276 0.47147449519270557 255 0 0
1.4572962944557368 1.9240630154639873 0.47147449519270557 255 0 0
3.8453323108925965 0.6733216450453522 0.7021411903699238 255 0 0
4.25429825954636 0.8205398673259707 0.7021411903699238 255 0 0
4.125726362849516 1.1829795201702566 0.7021411903699238 255 0 0
3.7167212424602285 1.0360326170751977 0.7021411903699238 255 0 0
2.4866106999702615 4.364627296916437 0.4831445044044844 255 0 0
4.938698079055749 5.245684962045439 0.4831445044044844 255 0 0
4.216970950811186 7.2802083418011385 0.4831445044044844 255 0 0
3.373545289866184 6.977183311823989 0.4831445044044844 255 0 0
3.7853022391290803 5.816454959974684 0.4831445044044844 255 0 0
2.1766170964940037 5.238488357648868 0.4831445044044844 255 0 0
2.360721390392591 5.771834960905081 0.46434817331613487 255 0 0
3.2064025686549735 6.075670350626262 0.46434817331613487 255 0 0
3.0055595915309006 6.641839636257163 0.46434817331613487 255 0 0
2.1596508358503668 6.338277570493972 0.46434817331613487 255 0 0
8.157626550090036 2.4036601936132875 0.4144176450191122 255 0 0
7.683607271923931 2.23335507648525 0.4144176450191122 255 0 0
7.543159354749026 2.6292728131863 0.4144176450191122 255 0 0
8.017641418122622 2.79967994379461 0.4144176450191122 255 0 0
8.236901975817823 2.4127171816451085 0.7009251768885855 255 0 0
8.236901975817823 2.4127171816451085 0.2639284133911133 255 0 0
8.091215007171124 2.8234036201033366 0.2639284133911133 255 0 0
8.091215007171124 2.8234036201033366 0.7009251768885855 255 0 0
6.754670651133717 5.812086140668624 0.6761980904659755 255 0 0
7.07084788270005 5.925570511619807 0.6761980904659755 255 0 0
6.942115486481408 6.288462606968691 0.6761980904659755 255 0 0
6.625973315747018 6.174879400765916 0.6761980904659755 255 0 0
2.514117821521072 0.18683695725908775 1.7651478052139282 255 0 0
2.514117821521072 0.18683695725908775 0.08609811216592793 255 0 0
2.1460591059309544 1.2112743295994943 0.08609811216592793 255 0 0
2.1460591059309544 1.2112743295994943 1.7651478052139282 255 0 0
6.428255482632207 5.779650064042132 0.4216509819167493 255 0 0
6.428255482632207 5.779650064042132 0.07324346899986267 255 0 0
6.3237523559680735 6.069928350160994 0.07324346899986267 255 0 0
6.325111130945256 6.0704103621997705 0.4216509819167493 255 0 0
6.163826191027096 6.051198635167354 1.7496808767318726 255 0 0
6.163826191027096 6.051198635167354 0.08004679617716626 255 0 0
5.89456801056867 6.810227971733341 0.08004679617716626 255 0 0
5.89456801056867 6.810227971733341 1.7496808767318726 255 0 0
5.204525414919591 5.789561042316877 1.1642228410794184 255 0 0
4.785542389288995 5.639029288564714 1.1642228410794184 255 0 0
3.92090726858442 8.076405270689715 1.1642228410794184 255 0 0
4.33952892324924 8.227143960405623 1.1642228410794184 255 0 0
6.698169032677026 7.033262371426129 0.9860258814527634 255 0 0
6.125721739978351 6.827594147108651 0.9860258814527634 255 0 0
5.513968177517602 8.552105914461091 0.9860258814527634 255 0 0
6.084930641554253 8.75719113371994 0.9860258814527634 255 0 0
6.603539623225676 6.463088955266114 2.473052595219608 255 0 0
6.603539623225676 6.463088955266114 1.824774748195194 255 0 0
6.221597416695953 7.539770596415238 1.824774748195194 255 0 0
6.221597416695953 7.539770596415238 1.4818447197143265 255 0 0
5.827822442601564 8.649808392980171 1.4818447197143265 255 0 0
5.821406277048926 8.647532321451711 2.473052595219608 255 0 0
3.631485980126091 0.6078824372929054 1.0720611810684204 255 0 0
3.631485980126091 0.6078824372929054 0.7497916221618652 255 0 0
3.4324695442717315 1.161815453856057 0.7497916221618652 255 0 0
3.4324695442717315 1.161815453856057 1.0720611810684204 255 0 0
7.442207028901923 4.060687386908253 2.3698880672454834 255 0 0
7.442207028901923 4.060687386908253 0.029709261089280847 255 0 0
7.144052883086556 4.901173433079018 0.029709261089280847 255 0 0
7.140494397703191 4.899911095441519 2.3698880672454834 255 0 0
3.447451467708697 7.302353126782059 2.2864328508519582 255 0 0
3.447451467708697 7.302353126782059 0.054242296235191834 255 0 0
1.2403047065135793 6.509371902182194 0.054242296235191834 255 0 0
1.240304706513581 6.5093719021821945 2.2864328508519582 255 0 0
0.30608226778830855 5.060946983135864 -0.0005845678388141096 255 0 0
0.8543273829969578 5.282168696290231 -0.0005845678388141096 255 0 0
1.229442461823928 6.522933957025595 -0.0005845678388141096 255 0 0
1.0755490961513248 6.907667371207103 -0.0005845678388141096 255 0 0
1.0755490961513248 6.907667371207103 -0.0005845678388141096 255 0 0
1.229442461823928 6.522933957025595 -0.0005845678388141096 255 0 0
0.8543273829969578 5.282168696290231 -0.0005845678388141096 255 0 0
6.04848692599367 1.398800755994404 2.3592920303344727 255 0 0
6.04848692599367 1.398800755994404 1.474995732307434 255 0 0
5.813366559810729 2.053223759481714 1.474995732307434 255 0 0
5.813366559810729 2.053223759481714 2.3592920303344727 255 0 0
4.926833805693169 5.253850909191165 0.7809139490127563 255 0 0
4.926833805693169 5.253850909191165 0.042527783662080765 255 0 0
2.315862379368256 4.3276345146288335 0.042527783662080765 255 0 0
2.315862379368256 4.3276345146288335 0.7809139490127563 255 0 0
6.196648643238018 1.5608825609819914 0.6838790132449224 255 0 0
5.782964550666432 1.4120942616466476 0.6838790132449224 255 0 0
5.656685393610498 1.7679071270460798 0.6838790132449224 255 0 0
6.070471421539512 1.9165717092652481 0.6838790132449224 255 0 0
7.049601751097631 5.773329242703966 0.13325938048412844 255 0 0
7.470329922414774 5.225276637645761 0.0625362347289955 255 0 0
7.470329922414774 5.225276637645761 1.9886126239816264 255 0 0
7.242070060905007 5.8687331556665905 1.9886126239816264 255 0 0
4.793302161672561 5.673658310593693 1.1204555034637451 255 0 0
4.793302161672561 5.673658310593693 0.07360754162073119 255 0 0
3.9436441958486608 8.038556455991941 0.07360754162073119 255 0 0
3.9436441958486608 8.038556455991941 1.1204555034637451 255 0 0
6.336778535083448 1.521399572665989 -0.0845845678388141 255 0 0
5.923190114838327 2.6852181505650514 -0.0845845678388141 255 0 0
6.230976846183533 3.5412499971189066 -0.0845845678388141 255 0 0
6.230976846183533 3.5412499971189066 -0.0845845678388141 255 0 0
5.923190114838327 2.6852181505650514 -0.0845845678388141 255 0 0
7.780540114211256 4.1322090574787005 2.852555274963379 255 0 0
7.780540114211256 4.1322090574787005 -0.05091173829039075 255 0 0
6.8773493636091985 3.8077116928032866 1.9698276873487117 255 0 0
6.186108396067451 3.559363409593499 2.852555274963379 255 0 0
6.8773493636091985 3.8077116928032866 -0.05091173829039075 255 0 0
6.186108396067451 3.559363409593499 1.9698276873487117 255 0 0
2.125339547868105 0.0028140425947189313 3.0247929096221924 255 0 0
8.415523628896588 2.2628816403637284 3.0247929096221924 255 0 0
6.126045207196154 8.716840753311624 3.0247929096221924 255 0 0
-0.16418206833443738 6.456894919324211 3.0247929096221924 255 0 0
4.355138900531624 0.8169913321274972 0.06335367875151521 255 0 0
5.676120123205338 1.2918090749236173 0.06335367875151521 255 0 0
5.00711219811373 3.1777188759744965 0.06335367875151521 255 0 0
3.6860626724083274 2.7030936770213887 0.06335367875151521 255 0 0
2.649443013184022 0.21547174325282392 0.0033536787515149914 255 0 0
3.677265482008982 0.5847743626546397 0.0033536787515149914 255 0 0
3.468138299773282 1.1742965310063136 0.0033536787515149914 255 0 0
2.4403071122571105 0.8050184892882465 0.0033536787515149914 255 0 0
1.774545127908219 1.0297497167118568 0.0633536787515151 255 0 0
2.1789855565655647 1.1750423597159914 0.0633536787515151 255 0 0
1.8617322354959462 2.0693683089029276 0.0633536787515151 255 0 0
1.4572962944557368 1.9240630154639873 0.0633536787515151 255 0 0
3.8453323108925965 0.6733216450453521 0.027353678751515103 255 0 0
4.25429825954636 0.8205398673259706 0.027353678751515103 255 0 0
4.125726362849516 1.1829795201702564 0.027353678751515103 255 0 0
3.7167212424602285 1.0360326170751974 0.027353678751515103 255 0 0
2.4866106999702615 4.364627296916437 0.06335367875151521 255 0 0
4.938698079055749 5.245684962045439 0.06335367875151521 255 0 0
4.216970950811186 7.2802083418011385 0.06335367875151521 255 0 0
3.373545289866184 6.977183311823989 0.06335367875151521 255 0 0
3.7853022391290803 5.816454959974684 0.06335367875151521 255 0 0
2.1766170964940037 5.238488357648868 0.06335367875151521 255 0 0
2.360721390392591 5.771834960905081 0.06335367875151521 255 0 0
3.2064025686549735 6.075670350626262 0.06335367875151521 255 0 0
3.0055595915309006 6.641839636257163 0.06335367875151521 255 0 0
2.1596508358503668 6.338277570493972 0.06335367875151521 255 0 0
8.157626550090036 2.4036601936132875 0.06335367875151515 255 0 0
7.683607271923931 2.23335507648525 0.06335367875151515 255 0 0
7.543159354749026 2.6292728131863 0.06335367875151515 255 0 0
8.017641418122622 2.79967994379461 0.06335367875151515 255 0 0
8.348346680920477 2.452251093013313 0.7009251768885856 255 0 0
8.348346680920477 2.452251093013313 0.26392841339111334 255 0 0
8.202659712273778 2.862937531471541 0.26392841339111334 255 0 0
8.202659712273778 2.862937531471541 0.7009251768885856 255 0 0
6.754670651133717 5.812086140668624 0.0633536787515151 255 0 0
7.07084788270005 5.925570511619807 0.0633536787515151 255 0 0
6.942115486481408 6.288462606968691 0.0633536787515151 255 0 0
6.625973315747018 6.174879400765916 0.0633536787515151 255 0 0
2.136658692048389 0.05122386256683642 1.7651478052139282 255 0 0
2.136658692048389 0.05122386256683642 0.08609811216592839 255 0 0
1.7685999764582712 1.0756612349072414 0.08609811216592839 255 0 0
1.7685999764582712 1.0756612349072414 1.7651478052139282 255 0 0
6.637756522203412 5.854520627300056 0.4211906979986925 255 0 0
6.637756522203412 5.854520627300056 0.07278318508180598 255 0 0
6.533253395539278 6.144798913418919 0.07278318508180598 255 0 0
6.534612170516461 6.145280925457695 0.4211906979986925 255 0 0
6.970183077841732 6.337245797884566 1.7496808767318737 255 0 0
6.970183077841732 6.337245797884566 0.08004679617716731 255 0 0
6.700924897383306 7.096275134450553 0.08004679617716731 255 0 0
6.700924897383306 7.096275134450553 1.7496808767318737 255 0 0
5.204525414919591 5.789561042316877 1.1071445044044845 255 0 0
4.785542389288995 5.639029288564714 1.1071445044044845 255 0 0
3.92090726858442 8.076405270689715 1.1071445044044845 255 0 0
4.33952892324924 8.227143960405623 1.1071445044044845 255 0 0
6.698169032677026 7.033262371426129 0.08004679617716726 255 0 0
6.125721739978351 6.827594147108651 0.08004679617716726 255 0 0
5.513968177517602 8.552105914461091 0.08004679617716726 255 0 0
6.084930641554253 8.75719113371994 0.08004679617716726 255 0 0
7.318851024412074 6.71828070270995 2.4763622618638106 255 0 0
7.318851024412074 6.71828070270995 1.8280844148393982 255 0 0
6.936908817882351 7.794962343859074 1.8280844148393982 255 0 0
6.936908817882351 7.794962343859074 1.4851543863585308 255 0 0
6.5431338437879605 8.905000140424008 1.4851543863585308 255 0 0
6.5367176782353225 8.902724068895548 2.4763622618638106 255 0 0
3.6986994403167386 0.6320308142421182 1.0720611810684204 255 0 0
3.6986994403167386 0.6320308142421182 0.7497916221618653 255 0 0
3.4996830044623795 1.18596383080527 0.7497916221618653 255 0 0
3.4996830044623795 1.18596383080527 1.0720611810684204 255 0 0
7.740038374977104 4.167050803468422 2.3701432257464337 255 0 0
7.740038374977104 4.167050803468422 0.029964419590231106 255 0 0
7.441884229161737 5.007536849639187 0.029964419590231106 255 0 0
7.438325743778371 5.0062745120016885 2.3701432257464337 255 0 0
3.303583061198067 7.702789704115234 2.2864328508519587 255 0 0
3.303583061198067 7.702789704115234 0.054242296235192125 255 0 0
1.0964363000029491 6.909808479515369 0.054242296235192125 255 0 0
1.096436300002951 6.90980847951537 2.2864328508519587 255 0 0
0.30608226778830855 5.060946983135864 3.0247929096221924 255 0 0
0.8543273829969578 5.282168696290231 3.0247929096221924 255 0 0
1.229442461823928 6.522933957025595 3.0247929096221924 255 0 0
1.0755490961513248 6.907667371207103 3.0247929096221924 255 0 0
1.0755490961513248 6.907667371207103 3.0247929096221924 255 0 0
1.229442461823928 6.522933957025595 3.0247929096221924 255 0 0
0.8543273829969578 5.282168696290231 3.0247929096221924 255 0 0
6.361036733259433 1.5110933018602055 2.359292030334472 255 0 0
6.361036733259433 1.5110933018602055 1.4749957323074336 255 0 0
6.125916367076492 2.1655163053475155 1.4749957323074336 255 0 0
6.125916367076492 2.1655163053475155 2.359292030334472 255 0 0
4.118789240210924 7.531700107345576 0.7809139490127545 255 0 0
4.118789240210924 7.531700107345576 0.04252778366207882 255 0 0
1.5078178138860103 6.605483712783244 0.04252778366207882 255 0 0
1.5078178138860103 6.605483712783244 0.7809139490127545 255 0 0
6.196648643238018 1.5608825609819912 0.0033536787515151024 255 0 0
5.782964550666432 1.4120942616466474 0.0033536787515151024 255 0 0
5.656685393610498 1.7679071270460796 0.0033536787515151024 255 0 0
6.070471421539512 1.916571709265248 0.0033536787515151024 255 0 0
7.049601751097631 5.773329242703966 0.13325938048412844 255 0 0
7.470329922414774 5.225276637645761 0.0625362347289955 255 0 0
7.470329922414776 5.225276637645758 1.9886126239816269 255 0 0
7.242070060905007 5.8687331556665905 1.9886126239816262 255 0 0
4.844413495493489 5.692021533555049 1.1204555034637451 255 0 0
4.844413495493489 5.692021533555049 0.07360754162073131 255 0 0
3.9947555296695887 8.056919678953301 0.07360754162073131 255 0 0
3.9947555296695887 8.056919678953301 1.1204555034637451 255 0 0
6.336778535083448 1.521399572665989 3.0247929096221924 255 0 0
5.923190114838327 2.6852181505650514 3.0247929096221924 255 0 0
6.230976846183533 3.5412499971189066 3.0247929096221924 255 0 0
6.230976846183533 3.5412499971189066 3.0247929096221924 255 0 0
5.923190114838327 2.6852181505650514 3.0247929096221924 255 0 0
7.791161873808606 4.102266690912108 2.852555274963379 255 0 0
7.791161873808605 4.102266690912108 -0.05091173829039075 255 0 0
6.88797112320654 3.7777693262366934 1.9698276873487117 255 0 0
6.196730155664797 3.5294210430269044 2.852555274963379 255 0 0
6.887971123206547 3.7777693262366947 -0.05091173829039075 255 0 0
6.196730155664798 3.529421043026905 1.9698276873487122 255 0 0
4 0 1 2 3
4 4 5 6 7
4 8 9 10 11
4 12 13 14 15
4 16 17 18 19
4 20 21 22 23
4 26 27 28 29
4 30 31 32 33
4 34 35 36 37
4 38 39 40 41
4 42 43 44 45
4 46 47 48 49
4 50 51 52 53
4 54 55 56 57
4 58 59 60 61
4 62 63 64 65
4 68 69 70 71
4 72 73 74 75
4 76 77 78 79
4 80 81 82 83
4 87 88 89 90
4 91 92 93 94
4 95 96 97 98
4 99 100 101 102
4 103 104 105 106
4 107 108 109 110
4 112 113 116 114
4 118 119 120 121
4 0 1 119 118
4 1 2 120 119
4 2 3 121 120
4 3 0 118 121
4 122 123 124 125
4 4 5 123 122
4 5 6 124 123
4 6 7 125 124
4 7 4 122 125
4 126 127 128 129
4 8 9 127 126
4 9 10 128 127
4 10 11 129 128
4 11 8 126 129
4 130 131 132 133
4 12 13 131 130
4 13 14 132 131
4 14 15 133 132
4 15 12 130 133
4 134 135 136 137
4 16 17 135 134
4 17 18 136 135
4 18 19 137 136
4 19 16 134 137
4 138 139 140 141
4 20 21 139 138
4 21 22 140 139
4 22 23 141 140
4 23 24 142 141
4 24 25 143 142
4 25 20 138 143
4 144 145 146 147
4 26 27 145 144
4 27 28 146 145
4 28 29 147 146
4 29 26 144 147
4 148 149 150 151
4 30 31 149 148
4 31 32 150 149
4 32 33 151 150
4 33 30 148 151
4 152 153 154 155
4 34 35 153 152
4 35 36 154 153
4 36 37 155 154
4 37 34 152 155
4 156 157 158 159
4 38 39 157 156
4 39 40 158 157
4 40 41 159 158
4 41 38 156 159
4 160 161 162 163
4 42 43 161 160
4 43 44 162 161
4 44 45 163 162
4 45 42 160 163
4 164 165 166 167
4 46 47 165 164
4 47 48 166 165
4 48 49 167 166
4 49 46 164 167
4 168 169 170 171
4 50 51 169 168
4 51 52 170 169
4 52 53 171 170
4 53 50 168 171
4 172 173 174 175
4 54 55 173 172
4 55 56 174 173
4 56 57 175 174
4 57 54 172 175
4 176 177 178 179
4 58 59 177 176
4 59 60 178 177
4 60 61 179 178
4 61 58 176 179
4 180 181 182 183
4 62 63 181 180
4 63 64 182 181
4 64 65 183 182
4 65 66 184 183
4 66 67 185 184
4 67 62 180 185
4 186 187 188 189
4 68 69 187 186
4 69 70 188 187
4 70 71 189 188
4 71 68 186 189
4 190 191 192 193
4 72 73 191 190
4 73 74 192 191
4 74 75 193 192
4 75 72 190 193
4 194 195 196 197
4 76 77 195 194
4 77 78 196 195
4 78 79 197 196
4 79 76 194 197
4 198 199 200 201
4 80 81 199 198
4 81 82 200 199
4 82 83 201 200
4 83 84 202 201
4 84 85 203 202
4 85 86 204 203
4 86 80 198 204
4 205 206 207 208
4 87 88 206 205
4 88 89 207 206
4 89 90 208 207
4 90 87 205 208
4 209 210 211 212
4 91 92 210 209
4 92 93 211 210
4 93 94 212 211
4 94 91 209 212
4 213 214 215 216
4 95 96 214 213
4 96 97 215 214
4 97 98 216 215
4 98 95 213 216
4 217 218 219 220
4 99 100 218 217
4 100 101 219 218
4 101 102 220 219
4 102 99 217 220
4 221 222 223 224
4 103 104 222 221
4 104 105 223 222
4 105 106 224 223
4 106 103 221 224
4 225 226 227 228
4 107 108 226 225
4 108 109 227 226
4 109 110 228 227
4 110 111 229 228
4 111 107 225 229
4 230 231 234 232
4 112 113 231 230
4 113 116 234 231
4 116 114 232 234
4 114 117 235 232
4 117 115 233 235
4 115 112 230 233
